<?xml version="1.0" standalone="no"?>
<!DOCTYPE svg PUBLIC "-//W3C//DTD SVG 20010904//EN"
 "http://www.w3.org/TR/2001/REC-SVG-20010904/DTD/svg10.dtd">
<svg version="1.0" xmlns="http://www.w3.org/2000/svg"
 width="64.000000pt" height="64.000000pt" viewBox="0 0 64.000000 64.000000"
 preserveAspectRatio="xMidYMid meet">

 <style type="text/css">
    .dark-theme path {
        fill: white; 
    }
    .light-theme path {
        fill: black; 
    }
</style>

<g transform="translate(0.000000,64.000000) scale(0.100000,-0.100000)"
class="dark-theme" stroke="none">
<path d="M110 610 c-8 -5 -23 -11 -33 -14 -11 -4 -21 -15 -24 -26 -3 -11 -12
-20 -19 -20 -10 0 -14 -13 -14 -40 0 -27 4 -40 14 -40 7 0 16 -9 19 -20 3 -11
13 -23 24 -26 10 -3 26 -10 35 -15 44 -23 88 -4 88 38 0 13 6 23 14 23 25 0
29 -80 7 -159 -13 -46 -16 -71 -9 -69 6 2 20 33 30 69 15 54 17 77 9 144 -5
44 -7 82 -4 85 2 3 28 10 56 17 43 10 56 9 75 -3 29 -19 29 -70 1 -125 -20
-39 -20 -43 -5 -173 13 -113 14 -139 2 -172 l-13 -39 -64 0 -63 0 -18 55 c-9
31 -14 69 -11 88 7 43 -13 42 -21 -2 -4 -23 1 -54 16 -97 l23 -64 68 -3 c39
-2 74 2 82 8 31 25 37 90 20 228 -15 129 -15 133 5 172 23 45 40 52 40 17 0
-42 44 -61 88 -38 9 5 25 12 35 15 11 3 21 15 24 26 3 11 12 20 19 20 10 0 14
13 14 40 0 27 -4 40 -14 40 -7 0 -16 9 -19 20 -3 11 -13 23 -24 26 -10 3 -26
10 -35 15 -44 23 -88 4 -88 -38 0 -28 -19 -29 -53 -3 -25 20 -29 20 -84 6 -32
-8 -68 -17 -80 -21 -20 -6 -23 -4 -23 17 0 13 -5 29 -12 36 -14 14 -56 15 -78
2z m70 -100 l0 -90 -30 0 -30 0 0 90 0 90 30 0 30 0 0 -90z m340 60 c0 -16 5
-30 10 -30 6 0 10 9 10 20 0 11 7 20 15 20 12 0 15 -14 15 -70 0 -56 -3 -70
-15 -70 -11 0 -15 11 -15 40 0 22 -4 40 -10 40 -5 0 -10 -22 -10 -50 0 -49 -1
-50 -30 -50 l-30 0 0 90 0 90 30 0 c27 0 30 -3 30 -30z m-420 -60 c0 -56 -3
-70 -15 -70 -12 0 -15 14 -15 70 0 56 3 70 15 70 12 0 15 -14 15 -70z m-53
-12 c-3 -7 -5 -2 -5 12 0 14 2 19 5 13 2 -7 2 -19 0 -25z m177 16 c9 -22 8
-24 -9 -24 -8 0 -15 9 -15 20 0 24 15 27 24 4z m216 -4 c0 -11 -4 -20 -10 -20
-5 0 -10 9 -10 20 0 11 5 20 10 20 6 0 10 -9 10 -20z m157 -12 c-3 -7 -5 -2
-5 12 0 14 2 19 5 13 2 -7 2 -19 0 -25z"/>
<path d="M290 220 c0 -41 -7 -74 -20 -100 -11 -22 -16 -40 -10 -40 5 0 19 18
30 40 21 42 29 160 10 160 -6 0 -10 -27 -10 -60z"/>
</g>
</svg>
